<svg xmlns="http://www.w3.org/2000/svg" xmlns:xlink="http://www.w3.org/1999/xlink" width="500" zoomAndPan="magnify" viewBox="0 0 375 374.999991" height="500" preserveAspectRatio="xMidYMid meet" version="1.0"><defs><g/></defs><g fill="#e0caf1" fill-opacity="1"><g transform="translate(114.946944, 199.648844)"><g><path d="M 5.078125 -3.40625 C 2.515625 -6.207031 1.234375 -9.640625 1.234375 -13.703125 C 1.234375 -17.773438 2.515625 -21.222656 5.078125 -24.046875 C 7.648438 -26.867188 10.921875 -28.28125 14.890625 -28.28125 C 18.535156 -28.28125 21.535156 -27.140625 23.890625 -24.859375 L 23.890625 -27.484375 L 33.375 -27.484375 L 33.375 0 L 24 0 L 24 -3.109375 L 23.890625 -3.109375 C 21.535156 -0.503906 18.535156 0.796875 14.890625 0.796875 C 10.921875 0.796875 7.648438 -0.601562 5.078125 -3.40625 Z M 13.140625 -18.359375 C 11.910156 -17.148438 11.296875 -15.597656 11.296875 -13.703125 C 11.296875 -11.816406 11.882812 -10.273438 13.0625 -9.078125 C 14.25 -7.878906 15.804688 -7.28125 17.734375 -7.28125 C 19.585938 -7.28125 21.113281 -7.882812 22.3125 -9.09375 C 23.507812 -10.3125 24.109375 -11.851562 24.109375 -13.71875 C 24.109375 -15.601562 23.488281 -17.148438 22.25 -18.359375 C 21.019531 -19.578125 19.515625 -20.1875 17.734375 -20.1875 C 15.910156 -20.1875 14.378906 -19.578125 13.140625 -18.359375 Z M 13.140625 -18.359375 "/></g></g></g><g fill="#e0caf1" fill-opacity="1"><g transform="translate(146.97147, 199.648844)"><g><path d="M 9.3125 -11.46875 C 11.03125 -11.46875 12.488281 -10.867188 13.6875 -9.671875 C 14.882812 -8.472656 15.484375 -7.015625 15.484375 -5.296875 C 15.484375 -3.617188 14.882812 -2.179688 13.6875 -0.984375 C 12.488281 0.203125 11.03125 0.796875 9.3125 0.796875 C 7.632812 0.796875 6.195312 0.203125 5 -0.984375 C 3.8125 -2.179688 3.21875 -3.617188 3.21875 -5.296875 C 3.21875 -7.015625 3.8125 -8.472656 5 -9.671875 C 6.195312 -10.867188 7.632812 -11.46875 9.3125 -11.46875 Z M 9.3125 -11.46875 "/></g></g></g><g fill="#e0caf1" fill-opacity="1"><g transform="translate(161.108699, 199.648844)"><g><path d="M 3.21875 0 L 3.21875 -27.484375 L 12.6875 -27.484375 L 12.6875 -24.578125 L 12.796875 -24.578125 C 15.265625 -27.046875 17.890625 -28.28125 20.671875 -28.28125 C 22.671875 -28.28125 24.546875 -27.867188 26.296875 -27.046875 C 28.046875 -26.222656 29.367188 -24.957031 30.265625 -23.25 C 33.046875 -26.601562 36.082031 -28.28125 39.375 -28.28125 C 42.300781 -28.28125 44.816406 -27.457031 46.921875 -25.8125 C 49.023438 -24.175781 50.078125 -21.609375 50.078125 -18.109375 L 50.078125 0 L 40.59375 0 L 40.59375 -15.53125 C 40.59375 -17 40.191406 -18.222656 39.390625 -19.203125 C 38.585938 -20.179688 37.382812 -20.671875 35.78125 -20.671875 C 34.382812 -20.671875 33.320312 -20.25 32.59375 -19.40625 C 31.863281 -18.570312 31.460938 -17.566406 31.390625 -16.390625 L 31.390625 0 L 21.90625 0 L 21.90625 -15.53125 C 21.90625 -17 21.503906 -18.222656 20.703125 -19.203125 C 19.898438 -20.179688 18.695312 -20.671875 17.09375 -20.671875 C 15.625 -20.671875 14.519531 -20.210938 13.78125 -19.296875 C 13.050781 -18.390625 12.6875 -17.3125 12.6875 -16.0625 L 12.6875 0 Z M 3.21875 0 "/></g></g></g><g fill="#e0caf1" fill-opacity="1"><g transform="translate(209.306759, 199.648844)"><g><path d="M 9.3125 -11.46875 C 11.03125 -11.46875 12.488281 -10.867188 13.6875 -9.671875 C 14.882812 -8.472656 15.484375 -7.015625 15.484375 -5.296875 C 15.484375 -3.617188 14.882812 -2.179688 13.6875 -0.984375 C 12.488281 0.203125 11.03125 0.796875 9.3125 0.796875 C 7.632812 0.796875 6.195312 0.203125 5 -0.984375 C 3.8125 -2.179688 3.21875 -3.617188 3.21875 -5.296875 C 3.21875 -7.015625 3.8125 -8.472656 5 -9.671875 C 6.195312 -10.867188 7.632812 -11.46875 9.3125 -11.46875 Z M 9.3125 -11.46875 "/></g></g></g><g fill="#e0caf1" fill-opacity="1"><g transform="translate(223.443988, 199.648844)"><g><path d="M 31.484375 -24.078125 C 34.054688 -21.273438 35.34375 -17.835938 35.34375 -13.765625 C 35.34375 -9.691406 34.054688 -6.242188 31.484375 -3.421875 C 28.921875 -0.609375 25.65625 0.796875 21.6875 0.796875 C 18.050781 0.796875 15.050781 -0.34375 12.6875 -2.625 L 12.6875 13.921875 L 3.21875 13.921875 L 3.21875 -27.484375 L 12.59375 -27.484375 L 12.59375 -24.375 L 12.6875 -24.375 C 15.050781 -26.976562 18.050781 -28.28125 21.6875 -28.28125 C 25.65625 -28.28125 28.921875 -26.878906 31.484375 -24.078125 Z M 23.421875 -9.09375 C 24.660156 -10.3125 25.28125 -11.867188 25.28125 -13.765625 C 25.28125 -15.660156 24.691406 -17.203125 23.515625 -18.390625 C 22.335938 -19.585938 20.785156 -20.1875 18.859375 -20.1875 C 16.992188 -20.1875 15.460938 -19.578125 14.265625 -18.359375 C 13.078125 -17.148438 12.484375 -15.617188 12.484375 -13.765625 C 12.484375 -11.867188 13.097656 -10.3125 14.328125 -9.09375 C 15.554688 -7.882812 17.066406 -7.28125 18.859375 -7.28125 C 20.671875 -7.28125 22.191406 -7.882812 23.421875 -9.09375 Z M 23.421875 -9.09375 "/></g></g></g><path stroke-linecap="butt" transform="matrix(0.75, 0, 0, 0.75, 90.574247, 228.073139)" fill="none" stroke-linejoin="miter" d="M -0.0000370697 5.001439 L 84.43226 5.001439 " stroke="#e0caf1" stroke-width="10" stroke-opacity="1" stroke-miterlimit="4"/><path stroke-linecap="butt" transform="matrix(0, 0.75, -0.75, 0, 98.070394, 171.479446)" fill="none" stroke-linejoin="miter" d="M 0.00136321 5.000109 L 82.46491 5.000109 " stroke="#e0caf1" stroke-width="10" stroke-opacity="1" stroke-miterlimit="4"/><path stroke-linecap="butt" transform="matrix(-0.75, 0, 0, -0.75, 283.487477, 146.919146)" fill="none" stroke-linejoin="miter" d="M -0.00107222 5.00157 L 84.431225 5.00157 " stroke="#e0caf1" stroke-width="10" stroke-opacity="1" stroke-miterlimit="4"/><path stroke-linecap="butt" transform="matrix(0, -0.75, 0.75, 0, 275.991344, 203.512837)" fill="none" stroke-linejoin="miter" d="M 0.00149105 5.001125 L 82.465038 5.001125 " stroke="#e0caf1" stroke-width="10" stroke-opacity="1" stroke-miterlimit="4"/></svg>